<svg width="195" height="218" viewBox="0 0 195 218" fill="none" xmlns="http://www.w3.org/2000/svg">
<g clip-path="url(#clip0_303_346)">
<path d="M2 15.4995C1.99999 22.9554 8.04407 28.9994 15.4998 28.9995C22.9558 28.9997 29.0002 22.9552 29 15.4991C28.9998 8.17094 23.0249 1.99971 15.5003 1.99954C8.04446 1.99938 2.00001 8.04354 2 15.4995Z" stroke="#82C75C" stroke-opacity="0.4" stroke-width="6"/>
<path d="M15.5564 55.4445V40.9995M15.5564 55.4445L0 71.001M15.5564 55.4445L31.1129 71.001" stroke="#82C75C" stroke-opacity="0.4" stroke-width="6"/>
<path d="M166 15.4995C166 22.9554 172.044 28.9994 179.5 28.9995C186.956 28.9997 193 22.9552 193 15.4991C193 8.17094 187.025 1.99971 179.5 1.99954C172.044 1.99938 166 8.04354 166 15.4995Z" stroke="#82C75C" stroke-opacity="0.4" stroke-width="6"/>
<path d="M179.556 55.4445V40.9995M179.556 55.4445L164 71.001M179.556 55.4445L195.113 71.001" stroke="#82C75C" stroke-opacity="0.4" stroke-width="6"/>
<path d="M84 15.4995C84 22.9554 90.0441 28.9994 97.4998 28.9995C104.956 28.9997 111 22.9552 111 15.4991C111 8.17094 105.025 1.99971 97.5003 1.99954C90.0445 1.99938 84 8.04354 84 15.4995Z" stroke="#82C75C" stroke-opacity="0.4" stroke-width="6"/>
<path d="M97.5564 55.4445V40.9995M97.5564 55.4445L82 71.001M97.5564 55.4445L113.113 71.001" stroke="#82C75C" stroke-opacity="0.4" stroke-width="6"/>
<path d="M2 179.5C1.99999 186.955 8.04407 192.999 15.4998 193C22.9558 193 29.0002 186.955 29 179.499C28.9998 172.171 23.0249 166 15.5003 166C8.04446 165.999 2.00001 172.044 2 179.5Z" stroke="#82C75C" stroke-opacity="0.4" stroke-width="6"/>
<path d="M15.5564 219.445V205M15.5564 219.445L0 235.001M15.5564 219.445L31.1129 235.001" stroke="#82C75C" stroke-opacity="0.4" stroke-width="6"/>
<path d="M166 179.5C166 186.955 172.044 192.999 179.5 193C186.956 193 193 186.955 193 179.499C193 172.171 187.025 166 179.5 166C172.044 165.999 166 172.044 166 179.5Z" stroke="#82C75C" stroke-opacity="0.4" stroke-width="6"/>
<path d="M179.556 219.445V205M179.556 219.445L164 235.001M179.556 219.445L195.113 235.001" stroke="#82C75C" stroke-opacity="0.4" stroke-width="6"/>
<path d="M84 179.5C84 186.955 90.0441 192.999 97.4998 193C104.956 193 111 186.955 111 179.499C111 172.171 105.025 166 97.5003 166C90.0445 165.999 84 172.044 84 179.5Z" stroke="#82C75C" stroke-opacity="0.4" stroke-width="6"/>
<path d="M97.5564 219.445V205M97.5564 219.445L82 235.001M97.5564 219.445L113.113 235.001" stroke="#82C75C" stroke-opacity="0.4" stroke-width="6"/>
<path d="M43 136.502C43 129.046 49.0441 123.002 56.4998 123.001C63.9558 123.001 70.0002 129.046 70 136.502C69.9998 143.83 64.0249 150.001 56.5003 150.001C49.0445 150.002 43 143.957 43 136.502Z" stroke="#82C75C" stroke-opacity="0.4" stroke-width="6"/>
<path d="M56.5564 96.5565V111.001M56.5564 96.5565L41 81M56.5564 96.5565L72.1129 81" stroke="#82C75C" stroke-opacity="0.4" stroke-width="6"/>
<path d="M125 136.502C125 129.046 131.044 123.002 138.5 123.001C145.956 123.001 152 129.046 152 136.502C152 143.83 146.025 150.001 138.5 150.001C131.044 150.002 125 143.957 125 136.502Z" stroke="#82C75C" stroke-opacity="0.4" stroke-width="6"/>
<path d="M138.556 96.5565V111.001M138.556 96.5565L123 81M138.556 96.5565L154.113 81" stroke="#82C75C" stroke-opacity="0.4" stroke-width="6"/>
<path d="M2 96.4995C1.99999 103.955 8.04407 109.999 15.4998 110C22.9558 110 29.0002 103.955 29 96.4991C28.9998 89.1709 23.0249 82.9997 15.5003 82.9995C8.04446 82.9994 2.00001 89.0435 2 96.4995Z" stroke="#82C75C" stroke-opacity="0.4" stroke-width="6"/>
<path d="M15.5564 136.445V122M15.5564 136.445L0 152.001M15.5564 136.445L31.1129 152.001" stroke="#82C75C" stroke-opacity="0.4" stroke-width="6"/>
<path d="M166 96.4995C166 103.955 172.044 109.999 179.5 110C186.956 110 193 103.955 193 96.4991C193 89.1709 187.025 82.9997 179.5 82.9995C172.044 82.9994 166 89.0435 166 96.4995Z" stroke="#82C75C" stroke-opacity="0.4" stroke-width="6"/>
<path d="M179.556 136.445V122M179.556 136.445L164 152.001M179.556 136.445L195.113 152.001" stroke="#82C75C" stroke-opacity="0.4" stroke-width="6"/>
<path d="M84 96.4995C84 103.955 90.0441 109.999 97.4998 110C104.956 110 111 103.955 111 96.4991C111 89.1709 105.025 82.9997 97.5003 82.9995C90.0445 82.9994 84 89.0435 84 96.4995Z" stroke="#82C75C" stroke-opacity="0.4" stroke-width="6"/>
<path d="M97.5564 136.445V122M97.5564 136.445L82 152.001M97.5564 136.445L113.113 152.001" stroke="#82C75C" stroke-opacity="0.4" stroke-width="6"/>
<path d="M43 55.5015C43 48.0457 49.0441 42.0016 56.4998 42.0015C63.9558 42.0014 70.0002 48.0458 70 55.5019C69.9998 62.8301 64.0249 69.0013 56.5003 69.0015C49.0445 69.0017 43 62.9575 43 55.5015Z" stroke="#82C75C" stroke-opacity="0.4" stroke-width="6"/>
<path d="M56.5564 15.5565V30.0015M56.5564 15.5565L41 -1.90735e-06M56.5564 15.5565L72.1129 -1.90735e-06" stroke="#82C75C" stroke-opacity="0.4" stroke-width="6"/>
<path d="M125 55.5015C125 48.0457 131.044 42.0016 138.5 42.0015C145.956 42.0014 152 48.0458 152 55.5019C152 62.8301 146.025 69.0013 138.5 69.0015C131.044 69.0017 125 62.9575 125 55.5015Z" stroke="#82C75C" stroke-opacity="0.4" stroke-width="6"/>
<path d="M138.556 15.5565V30.0015M138.556 15.5565L123 -1.90735e-06M138.556 15.5565L154.113 -1.90735e-06" stroke="#82C75C" stroke-opacity="0.4" stroke-width="6"/>
<path d="M43 219.502C43 212.046 49.0441 206.002 56.4998 206.001C63.9558 206.001 70.0002 212.046 70 219.502C69.9998 226.83 64.0249 233.001 56.5003 233.001C49.0445 233.002 43 226.957 43 219.502Z" stroke="#82C75C" stroke-opacity="0.4" stroke-width="6"/>
<path d="M56.5564 179.557V194.001M56.5564 179.557L41 164M56.5564 179.557L72.1129 164" stroke="#82C75C" stroke-opacity="0.4" stroke-width="6"/>
<path d="M125 219.502C125 212.046 131.044 206.002 138.5 206.001C145.956 206.001 152 212.046 152 219.502C152 226.83 146.025 233.001 138.5 233.001C131.044 233.002 125 226.957 125 219.502Z" stroke="#82C75C" stroke-opacity="0.4" stroke-width="6"/>
<path d="M138.556 179.557V194.001M138.556 179.557L123 164M138.556 179.557L154.113 164" stroke="#82C75C" stroke-opacity="0.4" stroke-width="6"/>
</g>
<defs>
<clipPath id="clip0_303_346">
<rect width="195" height="218" fill="white"/>
</clipPath>
</defs>
</svg>
